<?xml version="1.0" ?><svg data-name="Layer 1" id="Layer_1" viewBox="0 0 64 64" xmlns="http://www.w3.org/2000/svg"><title/><path d="M12,29H52a0,0,0,0,1,0,0V50.148A3.852,3.852,0,0,1,48.148,54h-32.3A3.852,3.852,0,0,1,12,50.148V29A0,0,0,0,1,12,29Z" style="fill:none;stroke:#000;stroke-linecap:round;stroke-linejoin:round;stroke-width:2px"/><rect height="7" rx="1.238" style="fill:none;stroke:#000;stroke-linecap:round;stroke-linejoin:round;stroke-width:2px" width="44" x="10" y="22"/><path d="M31.866,21.656l-4.319-8.973a4.878,4.878,0,0,0-8.258-.862L19.153,12a4.878,4.878,0,0,0,2.936,7.766Z" style="fill:none;stroke:#000;stroke-linecap:round;stroke-linejoin:round;stroke-width:2px"/><path d="M32.134,21.656l4.319-8.973a4.878,4.878,0,0,1,8.258-.862l.136.177a4.878,4.878,0,0,1-2.936,7.766Z" style="fill:none;stroke:#000;stroke-linecap:round;stroke-linejoin:round;stroke-width:2px"/><line style="fill:none;stroke:#000;stroke-linecap:square;stroke-linejoin:round;stroke-width:2px" x1="25" x2="25.047" y1="22" y2="54"/><line style="fill:none;stroke:#000;stroke-linecap:square;stroke-linejoin:round;stroke-width:2px" x1="39" x2="39" y1="22" y2="54"/></svg>