<?xml version="1.0" ?><svg viewBox="0 0 64 64" xmlns="http://www.w3.org/2000/svg"><title/><g id="Quality"><path d="M21.8369,31.8369l-1.3281,9.5762a1.9678,1.9678,0,0,0,2.8086,2.04l8.6689-4.2217,8.6973,4.2227a1.9684,1.9684,0,0,0,2.8076-2.042l-1.3359-9.5488,6.7021-6.9658a1.968,1.968,0,0,0-1.0722-3.3018L38.29,19.916l-4.5546-8.5273a1.967,1.967,0,0,0-3.4708,0l-4.5322,8.5107-9.5176,1.6963a1.968,1.968,0,0,0-1.0722,3.3018Zm4.249-9.9687a1.959,1.959,0,0,0,1.3877-1.0108l4.4971-8.5283.8828-.47-.8818.4707,4.5547,8.5273a1.9586,1.9586,0,0,0,1.39,1.0108l9.5,1.6425-6.7012,6.9659a1.9554,1.9554,0,0,0-.5322,1.6357l1.3731,9.542-8.6963-4.2217a1.9534,1.9534,0,0,0-1.7188,0l-8.6513,4.2549,1.3291-9.5781a1.9584,1.9584,0,0,0-.5323-1.6328l-6.72-6.9121Z"/><path d="M56.3,32.7988A24.6521,24.6521,0,0,0,57,27,25,25,0,0,0,7,27a24.6108,24.6108,0,0,0,.7007,5.7984A10.9773,10.9773,0,0,0,19,51.234V61a1,1,0,0,0,1.1641.9863L32,60.0137l11.8359,1.9726A1.0323,1.0323,0,0,0,44,62a1,1,0,0,0,1-1V51.234A10.9788,10.9788,0,0,0,56.3,32.7988ZM32,4A23.0256,23.0256,0,0,1,55,27a22.6246,22.6246,0,0,1-.7764,5.8965,23.083,23.083,0,0,1-8.8174,12.7858A22.6461,22.6461,0,0,1,43.5,46.9141l-.0015.0011-.0073.0047c-.4873.2881-1.0019.5469-1.44.7617a22.9478,22.9478,0,0,1-20.1006.001c-.4395-.2158-.9541-.4746-1.45-.7685a22.6438,22.6438,0,0,1-1.9113-1.2351A23.0813,23.0813,0,0,1,9.7754,32.89,22.5756,22.5756,0,0,1,9,27,23.0256,23.0256,0,0,1,32,4ZM15,50A8.9988,8.9988,0,0,1,8.3135,34.9775c.0207.0617.049.12.07.1819.2119.6135.4423,1.22.7013,1.8132.022.0506.0469.1.0693.15q.394.8866.8557,1.7392c.0272.05.0519.1018.08.1519.3137.57.6537,1.1255,1.0106,1.6695.0551.0842.109.1689.1652.2524q.5336.7927,1.1265,1.5427c.0639.081.1287.1607.1937.2409.4073.5034.8313.9932,1.2764,1.4641.0479.0507.0979.0992.1462.15a24.9906,24.9906,0,0,0,3.0492,2.6947c.0645.0484.1274.0984.1925.146q.7766.5691,1.6,1.0751c.0513.0318.0985.0695.15.1009v.7129A9.0155,9.0155,0,0,1,15,50Zm6-.34v-.2168l.07.0351A24.6392,24.6392,0,0,0,31,51.9722V58.153L21,59.8193ZM43,59.8193,33,58.153V51.9722a24.6344,24.6344,0,0,0,9.9307-2.4947c.0224-.0107.0459-.0224.0693-.0341V59.8193ZM49,50a9.0155,9.0155,0,0,1-4-.9375V48.35c.0492-.03.0941-.0658.1431-.0962q.8223-.5088,1.6017-1.0762c.07-.0511.1373-.1048.2066-.1567.5388-.4035,1.0645-.8231,1.5677-1.2677l.0084-.0077c.5053-.447.9878-.9179,1.4549-1.4032.0527-.0548.1071-.1076.1594-.1628.443-.4688.8647-.9562,1.27-1.457.066-.0815.1319-.1625.1969-.2448q.5936-.752,1.129-1.5461c.0534-.0793.1046-.16.1571-.24.3608-.55.7042-1.11,1.021-1.6868.0214-.0388.0405-.0788.0617-.1178q.478-.8813.8853-1.8c.0149-.0337.0315-.0664.0463-.1.265-.6062.5007-1.2254.7164-1.8524.0183-.0532.0429-.1038.0608-.1572A8.9988,8.9988,0,0,1,49,50Z"/></g></svg>