<?xml version="1.0" ?><svg id="Outline" style="enable-background:new 0 0 64 64;" version="1.1" viewBox="0 0 64 64" xml:space="preserve" xmlns="http://www.w3.org/2000/svg" xmlns:xlink="http://www.w3.org/1999/xlink"><title/><desc/><g><path d="M44,2H20c-0.553,0-1,0.448-1,1v54c0,2.757,2.243,5,5,5h16c2.757,0,5-2.243,5-5V3C45,2.448,44.553,2,44,2z M40.822,28.969   l-9.047,9.801l-9.047-4.523L40.822,28.969z M43,26H33V16h10V26z M37,28l-4,1.167V28H37z M31,26H21V16h10V26z M31,28v1.75l-10,2.917   V28H31z M43,14H33V4h10V14z M31,4v10H21V4H31z M40,60H24c-1.654,0-3-1.346-3-3V35.618l10.553,5.276C31.695,40.966,31.848,41,32,41   c0.272,0,0.541-0.111,0.734-0.322L43,29.557V57C43,58.654,41.654,60,40,60z"/><path d="M32,43.321c-2.043-1.427-4.885-1.229-6.707,0.593c-0.99,0.99-1.536,2.307-1.536,3.707c0,1.4,0.546,2.717,1.536,3.707l6,6   c0.195,0.195,0.451,0.293,0.707,0.293s0.512-0.098,0.707-0.293l6-6c0.99-0.99,1.536-2.307,1.536-3.707   c0-1.4-0.546-2.717-1.536-3.707C36.885,42.092,34.044,41.896,32,43.321z M37.293,49.914L32,55.207l-5.293-5.293   c-0.612-0.613-0.95-1.427-0.95-2.293c0-0.866,0.338-1.68,0.95-2.293C27.339,44.696,28.17,44.38,29,44.38s1.661,0.316,2.293,0.948   c0.391,0.391,1.023,0.391,1.414,0c1.264-1.264,3.322-1.264,4.586,0c0.612,0.613,0.95,1.427,0.95,2.293   C38.243,48.487,37.905,49.301,37.293,49.914z"/><path d="M24,24h4c0.553,0,1-0.448,1-1v-4c0-0.552-0.447-1-1-1h-4c-0.553,0-1,0.448-1,1v4C23,23.552,23.447,24,24,24z M25,20h2v2h-2   V20z"/><path d="M24,12h4c0.553,0,1-0.448,1-1V7c0-0.552-0.447-1-1-1h-4c-0.553,0-1,0.448-1,1v4C23,11.552,23.447,12,24,12z M25,8h2v2h-2V8   z"/><path d="M36,12h4c0.553,0,1-0.448,1-1V7c0-0.552-0.447-1-1-1h-4c-0.553,0-1,0.448-1,1v4C35,11.552,35.447,12,36,12z M37,8h2v2h-2V8   z"/><path d="M36,24h4c0.553,0,1-0.448,1-1v-4c0-0.552-0.447-1-1-1h-4c-0.553,0-1,0.448-1,1v4C35,23.552,35.447,24,36,24z M37,20h2v2h-2   V20z"/></g></svg>